<svg xmlns="http://www.w3.org/2000/svg" width="43" height="43" viewBox="0 0 43 43" fill="none">
    <path
        d="M31.6314 18.7565C31.6314 17.0757 30.2688 15.7131 28.588 15.7131H24.5292V11.6019C24.5292 9.92977 23.1736 8.57422 21.5015 8.57422C19.8293 8.57422 18.4738 9.92977 18.4738 11.6019V15.7131H14.4145C12.7337 15.7131 11.3711 17.0757 11.3711 18.7565C11.3711 20.4373 12.7337 21.7999 14.4145 21.7999H18.4738V25.9111C18.4738 27.5832 19.8293 28.9388 21.5015 28.9388C23.1736 28.9388 24.5292 27.5832 24.5292 25.9111V21.7999H28.588C30.2688 21.7999 31.6314 20.4373 31.6314 18.7565Z"
        fill="#0F62F9"></path>
    <path
        d="M39.9324 15.5414C39.3251 15.5414 38.7482 15.1811 38.4952 14.5808C37.868 13.0903 37.0487 11.6842 36.0607 10.4019C32.5143 5.79788 27.1754 3.1572 21.4126 3.1572C15.7041 3.1572 10.3967 5.75728 6.85077 10.2903C5.90801 11.4961 5.11365 12.8149 4.49056 14.2102C4.13581 15.0048 3.21134 15.3584 2.42511 14.9997C1.63939 14.6409 1.28973 13.7061 1.64447 12.9115C2.37277 11.2807 3.30028 9.73989 4.40162 8.33218C8.54318 3.03694 14.7436 0 21.4126 0C28.1451 0 34.382 3.08422 38.5241 8.46118C39.6783 9.95935 40.6353 11.6019 41.3682 13.3437C41.7056 14.146 41.3367 15.0732 40.5433 15.4144C40.3436 15.5008 40.1362 15.5414 39.9324 15.5414Z"
        fill="#0F62F9"></path>
    <path
        d="M14.295 42.069C14.295 42.069 19.7807 37.8808 13.1876 28.9389C13.1876 28.9389 10.9448 26.61 9.46865 25.0835C9.07227 24.6737 8.51081 24.4822 8.00805 24.7476C7.24538 25.1504 7.04819 26.1626 7.60313 26.8273L9.38937 28.9658C9.38937 28.9658 0.885162 27.493 2.96694 18.0435C3.09137 17.4792 2.7858 16.9087 2.25093 16.702C2.2414 16.6985 2.23137 16.6949 2.22183 16.6909C1.57507 16.4411 0.857566 16.817 0.688475 17.4949C-0.501683 22.2748 -0.891043 35.1085 14.295 42.069Z"
        fill="#0F62F9"></path>
    <path
        d="M28.7067 42.069C28.7067 42.069 23.2211 37.8808 29.8141 28.9389C29.8141 28.9389 32.0569 26.61 33.533 25.0835C33.9294 24.6737 34.4908 24.4822 34.9936 24.7476C35.7562 25.1504 35.9534 26.1626 35.3985 26.8273L33.6123 28.9658C33.6123 28.9658 42.1163 27.493 40.0346 18.0435C39.9102 17.4792 40.2157 16.9087 40.7506 16.702C40.7601 16.6985 40.7702 16.6949 40.7797 16.6909C41.4264 16.4411 42.1439 16.817 42.313 17.4949C43.5037 22.2748 43.893 35.1085 28.7067 42.069Z"
        fill="#0F62F9"></path>
</svg>
